<?xml version="1.0" encoding="utf-8" standalone="no"?>
<!DOCTYPE svg PUBLIC "-//W3C//DTD SVG 1.1//EN"
  "http://www.w3.org/Graphics/SVG/1.1/DTD/svg11.dtd">
<svg xmlns:xlink="http://www.w3.org/1999/xlink" width="854.785229pt" height="351.034375pt" viewBox="0 0 854.785229 351.034375" xmlns="http://www.w3.org/2000/svg" version="1.1">
 <metadata>
  <rdf:RDF xmlns:dc="http://purl.org/dc/elements/1.1/" xmlns:cc="http://creativecommons.org/ns#" xmlns:rdf="http://www.w3.org/1999/02/22-rdf-syntax-ns#">
   <cc:Work>
    <dc:type rdf:resource="http://purl.org/dc/dcmitype/StillImage"/>
    <dc:date>2026-08-14T20:46:35.244089</dc:date>
    <dc:format>image/svg+xml</dc:format>
    <dc:creator>
     <cc:Agent>
      <dc:title>Matplotlib v3.9.4, https://matplotlib.org/</dc:title>
     </cc:Agent>
    </dc:creator>
   </cc:Work>
  </rdf:RDF>
 </metadata>
 <defs>
  <style type="text/css">*{stroke-linejoin: round; stroke-linecap: butt}</style>
 </defs>
 <g id="figure_1">
  <g id="patch_1">
   <path d="M 0 351.034375 
L 854.785229 351.034375 
L 854.785229 0 
L 0 0 
z
" style="fill: #ffffff"/>
  </g>
  <g id="axes_1">
   <g id="patch_2">
    <path d="M 43.78125 313.478125 
L 435.231664 313.478125 
L 435.231664 22.318125 
L 43.78125 22.318125 
z
" style="fill: #ffffff"/>
   </g>
   <g id="PathCollection_1">
    <defs>
     <path id="md41a100d4d" d="M 0 2.12132 
C 0.562581 2.12132 1.102195 1.897805 1.5 1.5 
C 1.897805 1.102195 2.12132 0.562581 2.12132 0 
C 2.12132 -0.562581 1.897805 -1.102195 1.5 -1.5 
C 1.102195 -1.897805 0.562581 -2.12132 0 -2.12132 
C -0.562581 -2.12132 -1.102195 -1.897805 -1.5 -1.5 
C -1.897805 -1.102195 -2.12132 -0.562581 -2.12132 0 
C -2.12132 0.562581 -1.897805 1.102195 -1.5 1.5 
C -1.102195 1.897805 -0.562581 2.12132 0 2.12132 
z
" style="stroke: #000000; stroke-opacity: 0.4"/>
    </defs>
    <g clip-path="url(#p6ea50eab49)">
     <use xlink:href="#md41a100d4d" x="163.523237" y="244.382805" style="fill-opacity: 0.4; stroke: #000000; stroke-opacity: 0.4"/>
     <use xlink:href="#md41a100d4d" x="191.144981" y="142.207537" style="fill-opacity: 0.4; stroke: #000000; stroke-opacity: 0.4"/>
     <use xlink:href="#md41a100d4d" x="209.673023" y="192.49023" style="fill-opacity: 0.4; stroke: #000000; stroke-opacity: 0.4"/>
     <use xlink:href="#md41a100d4d" x="216.110177" y="139.61471" style="fill-opacity: 0.4; stroke: #000000; stroke-opacity: 0.4"/>
     <use xlink:href="#md41a100d4d" x="225.126233" y="161.765043" style="fill-opacity: 0.4; stroke: #000000; stroke-opacity: 0.4"/>
     <use xlink:href="#md41a100d4d" x="229.033304" y="135.94154" style="fill-opacity: 0.4; stroke: #000000; stroke-opacity: 0.4"/>
     <use xlink:href="#md41a100d4d" x="234.936813" y="159.613084" style="fill-opacity: 0.4; stroke: #000000; stroke-opacity: 0.4"/>
     <use xlink:href="#md41a100d4d" x="240.674765" y="157.24593" style="fill-opacity: 0.4; stroke: #000000; stroke-opacity: 0.4"/>
     <use xlink:href="#md41a100d4d" x="246.027737" y="139.61471" style="fill-opacity: 0.4; stroke: #000000; stroke-opacity: 0.4"/>
     <use xlink:href="#md41a100d4d" x="254.221085" y="114.090883" style="fill-opacity: 0.4; stroke: #000000; stroke-opacity: 0.4"/>
     <use xlink:href="#md41a100d4d" x="260.323595" y="132.268369" style="fill-opacity: 0.4; stroke: #000000; stroke-opacity: 0.4"/>
     <use xlink:href="#md41a100d4d" x="267.501572" y="120.724118" style="fill-opacity: 0.4; stroke: #000000; stroke-opacity: 0.4"/>
     <use xlink:href="#md41a100d4d" x="273.076994" y="91.557393" style="fill-opacity: 0.4; stroke: #000000; stroke-opacity: 0.4"/>
     <use xlink:href="#md41a100d4d" x="278.478434" y="146.250116" style="fill-opacity: 0.4; stroke: #000000; stroke-opacity: 0.4"/>
     <use xlink:href="#md41a100d4d" x="284.273383" y="141.859426" style="fill-opacity: 0.4; stroke: #000000; stroke-opacity: 0.4"/>
     <use xlink:href="#md41a100d4d" x="292.399536" y="153.695198" style="fill-opacity: 0.4; stroke: #000000; stroke-opacity: 0.4"/>
     <use xlink:href="#md41a100d4d" x="299.558185" y="162.285678" style="fill-opacity: 0.4; stroke: #000000; stroke-opacity: 0.4"/>
     <use xlink:href="#md41a100d4d" x="307.777277" y="106.115393" style="fill-opacity: 0.4; stroke: #000000; stroke-opacity: 0.4"/>
     <use xlink:href="#md41a100d4d" x="314.858846" y="102.801377" style="fill-opacity: 0.4; stroke: #000000; stroke-opacity: 0.4"/>
     <use xlink:href="#md41a100d4d" x="323.842217" y="118.187881" style="fill-opacity: 0.4; stroke: #000000; stroke-opacity: 0.4"/>
    </g>
   </g>
   <g id="matplotlib.axis_1">
    <g id="xtick_1">
     <g id="line2d_1">
      <defs>
       <path id="m83020e4be6" d="M 0 0 
L 0 3.5 
" style="stroke: #000000; stroke-width: 0.8"/>
      </defs>
      <g>
       <use xlink:href="#m83020e4be6" x="43.78125" y="313.478125" style="stroke: #000000; stroke-width: 0.8"/>
      </g>
     </g>
     <g id="text_1">
      <!-- 0.0 -->
      <g transform="translate(35.829688 328.076563) scale(0.1 -0.1)">
       <defs>
        <path id="DejaVuSans-30" d="M 2034 4250 
Q 1547 4250 1301 3770 
Q 1056 3291 1056 2328 
Q 1056 1369 1301 889 
Q 1547 409 2034 409 
Q 2525 409 2770 889 
Q 3016 1369 3016 2328 
Q 3016 3291 2770 3770 
Q 2525 4250 2034 4250 
z
M 2034 4750 
Q 2819 4750 3233 4129 
Q 3647 3509 3647 2328 
Q 3647 1150 3233 529 
Q 2819 -91 2034 -91 
Q 1250 -91 836 529 
Q 422 1150 422 2328 
Q 422 3509 836 4129 
Q 1250 4750 2034 4750 
z
" transform="scale(0.015625)"/>
        <path id="DejaVuSans-2e" d="M 684 794 
L 1344 794 
L 1344 0 
L 684 0 
L 684 794 
z
" transform="scale(0.015625)"/>
       </defs>
       <use xlink:href="#DejaVuSans-30"/>
       <use xlink:href="#DejaVuSans-2e" x="63.623047"/>
       <use xlink:href="#DejaVuSans-30" x="95.410156"/>
      </g>
     </g>
    </g>
    <g id="xtick_2">
     <g id="line2d_2">
      <g>
       <use xlink:href="#m83020e4be6" x="120.536233" y="313.478125" style="stroke: #000000; stroke-width: 0.8"/>
      </g>
     </g>
     <g id="text_2">
      <!-- 0.2 -->
      <g transform="translate(112.584671 328.076563) scale(0.1 -0.1)">
       <defs>
        <path id="DejaVuSans-32" d="M 1228 531 
L 3431 531 
L 3431 0 
L 469 0 
L 469 531 
Q 828 903 1448 1529 
Q 2069 2156 2228 2338 
Q 2531 2678 2651 2914 
Q 2772 3150 2772 3378 
Q 2772 3750 2511 3984 
Q 2250 4219 1831 4219 
Q 1534 4219 1204 4116 
Q 875 4013 500 3803 
L 500 4441 
Q 881 4594 1212 4672 
Q 1544 4750 1819 4750 
Q 2544 4750 2975 4387 
Q 3406 4025 3406 3419 
Q 3406 3131 3298 2873 
Q 3191 2616 2906 2266 
Q 2828 2175 2409 1742 
Q 1991 1309 1228 531 
z
" transform="scale(0.015625)"/>
       </defs>
       <use xlink:href="#DejaVuSans-30"/>
       <use xlink:href="#DejaVuSans-2e" x="63.623047"/>
       <use xlink:href="#DejaVuSans-32" x="95.410156"/>
      </g>
     </g>
    </g>
    <g id="xtick_3">
     <g id="line2d_3">
      <g>
       <use xlink:href="#m83020e4be6" x="197.291216" y="313.478125" style="stroke: #000000; stroke-width: 0.8"/>
      </g>
     </g>
     <g id="text_3">
      <!-- 0.4 -->
      <g transform="translate(189.339654 328.076563) scale(0.1 -0.1)">
       <defs>
        <path id="DejaVuSans-34" d="M 2419 4116 
L 825 1625 
L 2419 1625 
L 2419 4116 
z
M 2253 4666 
L 3047 4666 
L 3047 1625 
L 3713 1625 
L 3713 1100 
L 3047 1100 
L 3047 0 
L 2419 0 
L 2419 1100 
L 313 1100 
L 313 1709 
L 2253 4666 
z
" transform="scale(0.015625)"/>
       </defs>
       <use xlink:href="#DejaVuSans-30"/>
       <use xlink:href="#DejaVuSans-2e" x="63.623047"/>
       <use xlink:href="#DejaVuSans-34" x="95.410156"/>
      </g>
     </g>
    </g>
    <g id="xtick_4">
     <g id="line2d_4">
      <g>
       <use xlink:href="#m83020e4be6" x="274.0462" y="313.478125" style="stroke: #000000; stroke-width: 0.8"/>
      </g>
     </g>
     <g id="text_4">
      <!-- 0.6 -->
      <g transform="translate(266.094637 328.076563) scale(0.1 -0.1)">
       <defs>
        <path id="DejaVuSans-36" d="M 2113 2584 
Q 1688 2584 1439 2293 
Q 1191 2003 1191 1497 
Q 1191 994 1439 701 
Q 1688 409 2113 409 
Q 2538 409 2786 701 
Q 3034 994 3034 1497 
Q 3034 2003 2786 2293 
Q 2538 2584 2113 2584 
z
M 3366 4563 
L 3366 3988 
Q 3128 4100 2886 4159 
Q 2644 4219 2406 4219 
Q 1781 4219 1451 3797 
Q 1122 3375 1075 2522 
Q 1259 2794 1537 2939 
Q 1816 3084 2150 3084 
Q 2853 3084 3261 2657 
Q 3669 2231 3669 1497 
Q 3669 778 3244 343 
Q 2819 -91 2113 -91 
Q 1303 -91 875 529 
Q 447 1150 447 2328 
Q 447 3434 972 4092 
Q 1497 4750 2381 4750 
Q 2619 4750 2861 4703 
Q 3103 4656 3366 4563 
z
" transform="scale(0.015625)"/>
       </defs>
       <use xlink:href="#DejaVuSans-30"/>
       <use xlink:href="#DejaVuSans-2e" x="63.623047"/>
       <use xlink:href="#DejaVuSans-36" x="95.410156"/>
      </g>
     </g>
    </g>
    <g id="xtick_5">
     <g id="line2d_5">
      <g>
       <use xlink:href="#m83020e4be6" x="350.801183" y="313.478125" style="stroke: #000000; stroke-width: 0.8"/>
      </g>
     </g>
     <g id="text_5">
      <!-- 0.8 -->
      <g transform="translate(342.84962 328.076563) scale(0.1 -0.1)">
       <defs>
        <path id="DejaVuSans-38" d="M 2034 2216 
Q 1584 2216 1326 1975 
Q 1069 1734 1069 1313 
Q 1069 891 1326 650 
Q 1584 409 2034 409 
Q 2484 409 2743 651 
Q 3003 894 3003 1313 
Q 3003 1734 2745 1975 
Q 2488 2216 2034 2216 
z
M 1403 2484 
Q 997 2584 770 2862 
Q 544 3141 544 3541 
Q 544 4100 942 4425 
Q 1341 4750 2034 4750 
Q 2731 4750 3128 4425 
Q 3525 4100 3525 3541 
Q 3525 3141 3298 2862 
Q 3072 2584 2669 2484 
Q 3125 2378 3379 2068 
Q 3634 1759 3634 1313 
Q 3634 634 3220 271 
Q 2806 -91 2034 -91 
Q 1263 -91 848 271 
Q 434 634 434 1313 
Q 434 1759 690 2068 
Q 947 2378 1403 2484 
z
M 1172 3481 
Q 1172 3119 1398 2916 
Q 1625 2713 2034 2713 
Q 2441 2713 2670 2916 
Q 2900 3119 2900 3481 
Q 2900 3844 2670 4047 
Q 2441 4250 2034 4250 
Q 1625 4250 1398 4047 
Q 1172 3844 1172 3481 
z
" transform="scale(0.015625)"/>
       </defs>
       <use xlink:href="#DejaVuSans-30"/>
       <use xlink:href="#DejaVuSans-2e" x="63.623047"/>
       <use xlink:href="#DejaVuSans-38" x="95.410156"/>
      </g>
     </g>
    </g>
    <g id="xtick_6">
     <g id="line2d_6">
      <g>
       <use xlink:href="#m83020e4be6" x="427.556166" y="313.478125" style="stroke: #000000; stroke-width: 0.8"/>
      </g>
     </g>
     <g id="text_6">
      <!-- 1.0 -->
      <g transform="translate(419.604604 328.076563) scale(0.1 -0.1)">
       <defs>
        <path id="DejaVuSans-31" d="M 794 531 
L 1825 531 
L 1825 4091 
L 703 3866 
L 703 4441 
L 1819 4666 
L 2450 4666 
L 2450 531 
L 3481 531 
L 3481 0 
L 794 0 
L 794 531 
z
" transform="scale(0.015625)"/>
       </defs>
       <use xlink:href="#DejaVuSans-31"/>
       <use xlink:href="#DejaVuSans-2e" x="63.623047"/>
       <use xlink:href="#DejaVuSans-30" x="95.410156"/>
      </g>
     </g>
    </g>
    <g id="text_7">
     <!-- Model similarity (Tr-24) -->
     <g transform="translate(182.123645 341.754687) scale(0.1 -0.1)">
      <defs>
       <path id="DejaVuSans-4d" d="M 628 4666 
L 1569 4666 
L 2759 1491 
L 3956 4666 
L 4897 4666 
L 4897 0 
L 4281 0 
L 4281 4097 
L 3078 897 
L 2444 897 
L 1241 4097 
L 1241 0 
L 628 0 
L 628 4666 
z
" transform="scale(0.015625)"/>
       <path id="DejaVuSans-6f" d="M 1959 3097 
Q 1497 3097 1228 2736 
Q 959 2375 959 1747 
Q 959 1119 1226 758 
Q 1494 397 1959 397 
Q 2419 397 2687 759 
Q 2956 1122 2956 1747 
Q 2956 2369 2687 2733 
Q 2419 3097 1959 3097 
z
M 1959 3584 
Q 2709 3584 3137 3096 
Q 3566 2609 3566 1747 
Q 3566 888 3137 398 
Q 2709 -91 1959 -91 
Q 1206 -91 779 398 
Q 353 888 353 1747 
Q 353 2609 779 3096 
Q 1206 3584 1959 3584 
z
" transform="scale(0.015625)"/>
       <path id="DejaVuSans-64" d="M 2906 2969 
L 2906 4863 
L 3481 4863 
L 3481 0 
L 2906 0 
L 2906 525 
Q 2725 213 2448 61 
Q 2172 -91 1784 -91 
Q 1150 -91 751 415 
Q 353 922 353 1747 
Q 353 2572 751 3078 
Q 1150 3584 1784 3584 
Q 2172 3584 2448 3432 
Q 2725 3281 2906 2969 
z
M 947 1747 
Q 947 1113 1208 752 
Q 1469 391 1925 391 
Q 2381 391 2643 752 
Q 2906 1113 2906 1747 
Q 2906 2381 2643 2742 
Q 2381 3103 1925 3103 
Q 1469 3103 1208 2742 
Q 947 2381 947 1747 
z
" transform="scale(0.015625)"/>
       <path id="DejaVuSans-65" d="M 3597 1894 
L 3597 1613 
L 953 1613 
Q 991 1019 1311 708 
Q 1631 397 2203 397 
Q 2534 397 2845 478 
Q 3156 559 3463 722 
L 3463 178 
Q 3153 47 2828 -22 
Q 2503 -91 2169 -91 
Q 1331 -91 842 396 
Q 353 884 353 1716 
Q 353 2575 817 3079 
Q 1281 3584 2069 3584 
Q 2775 3584 3186 3129 
Q 3597 2675 3597 1894 
z
M 3022 2063 
Q 3016 2534 2758 2815 
Q 2500 3097 2075 3097 
Q 1594 3097 1305 2825 
Q 1016 2553 972 2059 
L 3022 2063 
z
" transform="scale(0.015625)"/>
       <path id="DejaVuSans-6c" d="M 603 4863 
L 1178 4863 
L 1178 0 
L 603 0 
L 603 4863 
z
" transform="scale(0.015625)"/>
       <path id="DejaVuSans-20" transform="scale(0.015625)"/>
       <path id="DejaVuSans-73" d="M 2834 3397 
L 2834 2853 
Q 2591 2978 2328 3040 
Q 2066 3103 1784 3103 
Q 1356 3103 1142 2972 
Q 928 2841 928 2578 
Q 928 2378 1081 2264 
Q 1234 2150 1697 2047 
L 1894 2003 
Q 2506 1872 2764 1633 
Q 3022 1394 3022 966 
Q 3022 478 2636 193 
Q 2250 -91 1575 -91 
Q 1294 -91 989 -36 
Q 684 19 347 128 
L 347 722 
Q 666 556 975 473 
Q 1284 391 1588 391 
Q 1994 391 2212 530 
Q 2431 669 2431 922 
Q 2431 1156 2273 1281 
Q 2116 1406 1581 1522 
L 1381 1569 
Q 847 1681 609 1914 
Q 372 2147 372 2553 
Q 372 3047 722 3315 
Q 1072 3584 1716 3584 
Q 2034 3584 2315 3537 
Q 2597 3491 2834 3397 
z
" transform="scale(0.015625)"/>
       <path id="DejaVuSans-69" d="M 603 3500 
L 1178 3500 
L 1178 0 
L 603 0 
L 603 3500 
z
M 603 4863 
L 1178 4863 
L 1178 4134 
L 603 4134 
L 603 4863 
z
" transform="scale(0.015625)"/>
       <path id="DejaVuSans-6d" d="M 3328 2828 
Q 3544 3216 3844 3400 
Q 4144 3584 4550 3584 
Q 5097 3584 5394 3201 
Q 5691 2819 5691 2113 
L 5691 0 
L 5113 0 
L 5113 2094 
Q 5113 2597 4934 2840 
Q 4756 3084 4391 3084 
Q 3944 3084 3684 2787 
Q 3425 2491 3425 1978 
L 3425 0 
L 2847 0 
L 2847 2094 
Q 2847 2600 2669 2842 
Q 2491 3084 2119 3084 
Q 1678 3084 1418 2786 
Q 1159 2488 1159 1978 
L 1159 0 
L 581 0 
L 581 3500 
L 1159 3500 
L 1159 2956 
Q 1356 3278 1631 3431 
Q 1906 3584 2284 3584 
Q 2666 3584 2933 3390 
Q 3200 3197 3328 2828 
z
" transform="scale(0.015625)"/>
       <path id="DejaVuSans-61" d="M 2194 1759 
Q 1497 1759 1228 1600 
Q 959 1441 959 1056 
Q 959 750 1161 570 
Q 1363 391 1709 391 
Q 2188 391 2477 730 
Q 2766 1069 2766 1631 
L 2766 1759 
L 2194 1759 
z
M 3341 1997 
L 3341 0 
L 2766 0 
L 2766 531 
Q 2569 213 2275 61 
Q 1981 -91 1556 -91 
Q 1019 -91 701 211 
Q 384 513 384 1019 
Q 384 1609 779 1909 
Q 1175 2209 1959 2209 
L 2766 2209 
L 2766 2266 
Q 2766 2663 2505 2880 
Q 2244 3097 1772 3097 
Q 1472 3097 1187 3025 
Q 903 2953 641 2809 
L 641 3341 
Q 956 3463 1253 3523 
Q 1550 3584 1831 3584 
Q 2591 3584 2966 3190 
Q 3341 2797 3341 1997 
z
" transform="scale(0.015625)"/>
       <path id="DejaVuSans-72" d="M 2631 2963 
Q 2534 3019 2420 3045 
Q 2306 3072 2169 3072 
Q 1681 3072 1420 2755 
Q 1159 2438 1159 1844 
L 1159 0 
L 581 0 
L 581 3500 
L 1159 3500 
L 1159 2956 
Q 1341 3275 1631 3429 
Q 1922 3584 2338 3584 
Q 2397 3584 2469 3576 
Q 2541 3569 2628 3553 
L 2631 2963 
z
" transform="scale(0.015625)"/>
       <path id="DejaVuSans-74" d="M 1172 4494 
L 1172 3500 
L 2356 3500 
L 2356 3053 
L 1172 3053 
L 1172 1153 
Q 1172 725 1289 603 
Q 1406 481 1766 481 
L 2356 481 
L 2356 0 
L 1766 0 
Q 1100 0 847 248 
Q 594 497 594 1153 
L 594 3053 
L 172 3053 
L 172 3500 
L 594 3500 
L 594 4494 
L 1172 4494 
z
" transform="scale(0.015625)"/>
       <path id="DejaVuSans-79" d="M 2059 -325 
Q 1816 -950 1584 -1140 
Q 1353 -1331 966 -1331 
L 506 -1331 
L 506 -850 
L 844 -850 
Q 1081 -850 1212 -737 
Q 1344 -625 1503 -206 
L 1606 56 
L 191 3500 
L 800 3500 
L 1894 763 
L 2988 3500 
L 3597 3500 
L 2059 -325 
z
" transform="scale(0.015625)"/>
       <path id="DejaVuSans-28" d="M 1984 4856 
Q 1566 4138 1362 3434 
Q 1159 2731 1159 2009 
Q 1159 1288 1364 580 
Q 1569 -128 1984 -844 
L 1484 -844 
Q 1016 -109 783 600 
Q 550 1309 550 2009 
Q 550 2706 781 3412 
Q 1013 4119 1484 4856 
L 1984 4856 
z
" transform="scale(0.015625)"/>
       <path id="DejaVuSans-54" d="M -19 4666 
L 3928 4666 
L 3928 4134 
L 2272 4134 
L 2272 0 
L 1638 0 
L 1638 4134 
L -19 4134 
L -19 4666 
z
" transform="scale(0.015625)"/>
       <path id="DejaVuSans-2d" d="M 313 2009 
L 1997 2009 
L 1997 1497 
L 313 1497 
L 313 2009 
z
" transform="scale(0.015625)"/>
       <path id="DejaVuSans-29" d="M 513 4856 
L 1013 4856 
Q 1481 4119 1714 3412 
Q 1947 2706 1947 2009 
Q 1947 1309 1714 600 
Q 1481 -109 1013 -844 
L 513 -844 
Q 928 -128 1133 580 
Q 1338 1288 1338 2009 
Q 1338 2731 1133 3434 
Q 928 4138 513 4856 
z
" transform="scale(0.015625)"/>
      </defs>
      <use xlink:href="#DejaVuSans-4d"/>
      <use xlink:href="#DejaVuSans-6f" x="86.279297"/>
      <use xlink:href="#DejaVuSans-64" x="147.460938"/>
      <use xlink:href="#DejaVuSans-65" x="210.9375"/>
      <use xlink:href="#DejaVuSans-6c" x="272.460938"/>
      <use xlink:href="#DejaVuSans-20" x="300.244141"/>
      <use xlink:href="#DejaVuSans-73" x="332.03125"/>
      <use xlink:href="#DejaVuSans-69" x="384.130859"/>
      <use xlink:href="#DejaVuSans-6d" x="411.914062"/>
      <use xlink:href="#DejaVuSans-69" x="509.326172"/>
      <use xlink:href="#DejaVuSans-6c" x="537.109375"/>
      <use xlink:href="#DejaVuSans-61" x="564.892578"/>
      <use xlink:href="#DejaVuSans-72" x="626.171875"/>
      <use xlink:href="#DejaVuSans-69" x="667.285156"/>
      <use xlink:href="#DejaVuSans-74" x="695.068359"/>
      <use xlink:href="#DejaVuSans-79" x="734.277344"/>
      <use xlink:href="#DejaVuSans-20" x="793.457031"/>
      <use xlink:href="#DejaVuSans-28" x="825.244141"/>
      <use xlink:href="#DejaVuSans-54" x="864.257812"/>
      <use xlink:href="#DejaVuSans-72" x="910.591797"/>
      <use xlink:href="#DejaVuSans-2d" x="945.330078"/>
      <use xlink:href="#DejaVuSans-32" x="981.414062"/>
      <use xlink:href="#DejaVuSans-34" x="1045.037109"/>
      <use xlink:href="#DejaVuSans-29" x="1108.660156"/>
     </g>
    </g>
   </g>
   <g id="matplotlib.axis_2">
    <g id="ytick_1">
     <g id="line2d_7">
      <defs>
       <path id="m6e05eb12fb" d="M 0 0 
L -3.5 0 
" style="stroke: #000000; stroke-width: 0.8"/>
      </defs>
      <g>
       <use xlink:href="#m6e05eb12fb" x="43.78125" y="313.478125" style="stroke: #000000; stroke-width: 0.8"/>
      </g>
     </g>
     <g id="text_8">
      <!-- 0.2 -->
      <g transform="translate(20.878125 317.277344) scale(0.1 -0.1)">
       <use xlink:href="#DejaVuSans-30"/>
       <use xlink:href="#DejaVuSans-2e" x="63.623047"/>
       <use xlink:href="#DejaVuSans-32" x="95.410156"/>
      </g>
     </g>
    </g>
    <g id="ytick_2">
     <g id="line2d_8">
      <g>
       <use xlink:href="#m6e05eb12fb" x="43.78125" y="277.970808" style="stroke: #000000; stroke-width: 0.8"/>
      </g>
     </g>
     <g id="text_9">
      <!-- 0.3 -->
      <g transform="translate(20.878125 281.770027) scale(0.1 -0.1)">
       <defs>
        <path id="DejaVuSans-33" d="M 2597 2516 
Q 3050 2419 3304 2112 
Q 3559 1806 3559 1356 
Q 3559 666 3084 287 
Q 2609 -91 1734 -91 
Q 1441 -91 1130 -33 
Q 819 25 488 141 
L 488 750 
Q 750 597 1062 519 
Q 1375 441 1716 441 
Q 2309 441 2620 675 
Q 2931 909 2931 1356 
Q 2931 1769 2642 2001 
Q 2353 2234 1838 2234 
L 1294 2234 
L 1294 2753 
L 1863 2753 
Q 2328 2753 2575 2939 
Q 2822 3125 2822 3475 
Q 2822 3834 2567 4026 
Q 2313 4219 1838 4219 
Q 1578 4219 1281 4162 
Q 984 4106 628 3988 
L 628 4550 
Q 988 4650 1302 4700 
Q 1616 4750 1894 4750 
Q 2613 4750 3031 4423 
Q 3450 4097 3450 3541 
Q 3450 3153 3228 2886 
Q 3006 2619 2597 2516 
z
" transform="scale(0.015625)"/>
       </defs>
       <use xlink:href="#DejaVuSans-30"/>
       <use xlink:href="#DejaVuSans-2e" x="63.623047"/>
       <use xlink:href="#DejaVuSans-33" x="95.410156"/>
      </g>
     </g>
    </g>
    <g id="ytick_3">
     <g id="line2d_9">
      <g>
       <use xlink:href="#m6e05eb12fb" x="43.78125" y="242.463491" style="stroke: #000000; stroke-width: 0.8"/>
      </g>
     </g>
     <g id="text_10">
      <!-- 0.4 -->
      <g transform="translate(20.878125 246.26271) scale(0.1 -0.1)">
       <use xlink:href="#DejaVuSans-30"/>
       <use xlink:href="#DejaVuSans-2e" x="63.623047"/>
       <use xlink:href="#DejaVuSans-34" x="95.410156"/>
      </g>
     </g>
    </g>
    <g id="ytick_4">
     <g id="line2d_10">
      <g>
       <use xlink:href="#m6e05eb12fb" x="43.78125" y="206.956174" style="stroke: #000000; stroke-width: 0.8"/>
      </g>
     </g>
     <g id="text_11">
      <!-- 0.5 -->
      <g transform="translate(20.878125 210.755393) scale(0.1 -0.1)">
       <defs>
        <path id="DejaVuSans-35" d="M 691 4666 
L 3169 4666 
L 3169 4134 
L 1269 4134 
L 1269 2991 
Q 1406 3038 1543 3061 
Q 1681 3084 1819 3084 
Q 2600 3084 3056 2656 
Q 3513 2228 3513 1497 
Q 3513 744 3044 326 
Q 2575 -91 1722 -91 
Q 1428 -91 1123 -41 
Q 819 9 494 109 
L 494 744 
Q 775 591 1075 516 
Q 1375 441 1709 441 
Q 2250 441 2565 725 
Q 2881 1009 2881 1497 
Q 2881 1984 2565 2268 
Q 2250 2553 1709 2553 
Q 1456 2553 1204 2497 
Q 953 2441 691 2322 
L 691 4666 
z
" transform="scale(0.015625)"/>
       </defs>
       <use xlink:href="#DejaVuSans-30"/>
       <use xlink:href="#DejaVuSans-2e" x="63.623047"/>
       <use xlink:href="#DejaVuSans-35" x="95.410156"/>
      </g>
     </g>
    </g>
    <g id="ytick_5">
     <g id="line2d_11">
      <g>
       <use xlink:href="#m6e05eb12fb" x="43.78125" y="171.448857" style="stroke: #000000; stroke-width: 0.8"/>
      </g>
     </g>
     <g id="text_12">
      <!-- 0.6 -->
      <g transform="translate(20.878125 175.248075) scale(0.1 -0.1)">
       <use xlink:href="#DejaVuSans-30"/>
       <use xlink:href="#DejaVuSans-2e" x="63.623047"/>
       <use xlink:href="#DejaVuSans-36" x="95.410156"/>
      </g>
     </g>
    </g>
    <g id="ytick_6">
     <g id="line2d_12">
      <g>
       <use xlink:href="#m6e05eb12fb" x="43.78125" y="135.94154" style="stroke: #000000; stroke-width: 0.8"/>
      </g>
     </g>
     <g id="text_13">
      <!-- 0.7 -->
      <g transform="translate(20.878125 139.740758) scale(0.1 -0.1)">
       <defs>
        <path id="DejaVuSans-37" d="M 525 4666 
L 3525 4666 
L 3525 4397 
L 1831 0 
L 1172 0 
L 2766 4134 
L 525 4134 
L 525 4666 
z
" transform="scale(0.015625)"/>
       </defs>
       <use xlink:href="#DejaVuSans-30"/>
       <use xlink:href="#DejaVuSans-2e" x="63.623047"/>
       <use xlink:href="#DejaVuSans-37" x="95.410156"/>
      </g>
     </g>
    </g>
    <g id="ytick_7">
     <g id="line2d_13">
      <g>
       <use xlink:href="#m6e05eb12fb" x="43.78125" y="100.434223" style="stroke: #000000; stroke-width: 0.8"/>
      </g>
     </g>
     <g id="text_14">
      <!-- 0.8 -->
      <g transform="translate(20.878125 104.233441) scale(0.1 -0.1)">
       <use xlink:href="#DejaVuSans-30"/>
       <use xlink:href="#DejaVuSans-2e" x="63.623047"/>
       <use xlink:href="#DejaVuSans-38" x="95.410156"/>
      </g>
     </g>
    </g>
    <g id="ytick_8">
     <g id="line2d_14">
      <g>
       <use xlink:href="#m6e05eb12fb" x="43.78125" y="64.926905" style="stroke: #000000; stroke-width: 0.8"/>
      </g>
     </g>
     <g id="text_15">
      <!-- 0.9 -->
      <g transform="translate(20.878125 68.726124) scale(0.1 -0.1)">
       <defs>
        <path id="DejaVuSans-39" d="M 703 97 
L 703 672 
Q 941 559 1184 500 
Q 1428 441 1663 441 
Q 2288 441 2617 861 
Q 2947 1281 2994 2138 
Q 2813 1869 2534 1725 
Q 2256 1581 1919 1581 
Q 1219 1581 811 2004 
Q 403 2428 403 3163 
Q 403 3881 828 4315 
Q 1253 4750 1959 4750 
Q 2769 4750 3195 4129 
Q 3622 3509 3622 2328 
Q 3622 1225 3098 567 
Q 2575 -91 1691 -91 
Q 1453 -91 1209 -44 
Q 966 3 703 97 
z
M 1959 2075 
Q 2384 2075 2632 2365 
Q 2881 2656 2881 3163 
Q 2881 3666 2632 3958 
Q 2384 4250 1959 4250 
Q 1534 4250 1286 3958 
Q 1038 3666 1038 3163 
Q 1038 2656 1286 2365 
Q 1534 2075 1959 2075 
z
" transform="scale(0.015625)"/>
       </defs>
       <use xlink:href="#DejaVuSans-30"/>
       <use xlink:href="#DejaVuSans-2e" x="63.623047"/>
       <use xlink:href="#DejaVuSans-39" x="95.410156"/>
      </g>
     </g>
    </g>
    <g id="ytick_9">
     <g id="line2d_15">
      <g>
       <use xlink:href="#m6e05eb12fb" x="43.78125" y="29.419588" style="stroke: #000000; stroke-width: 0.8"/>
      </g>
     </g>
     <g id="text_16">
      <!-- 1.0 -->
      <g transform="translate(20.878125 33.218807) scale(0.1 -0.1)">
       <use xlink:href="#DejaVuSans-31"/>
       <use xlink:href="#DejaVuSans-2e" x="63.623047"/>
       <use xlink:href="#DejaVuSans-30" x="95.410156"/>
      </g>
     </g>
    </g>
    <g id="text_17">
     <!-- Listener accuracy -->
     <g transform="translate(14.798438 212.16375) rotate(-90) scale(0.1 -0.1)">
      <defs>
       <path id="DejaVuSans-4c" d="M 628 4666 
L 1259 4666 
L 1259 531 
L 3531 531 
L 3531 0 
L 628 0 
L 628 4666 
z
" transform="scale(0.015625)"/>
       <path id="DejaVuSans-6e" d="M 3513 2113 
L 3513 0 
L 2938 0 
L 2938 2094 
Q 2938 2591 2744 2837 
Q 2550 3084 2163 3084 
Q 1697 3084 1428 2787 
Q 1159 2491 1159 1978 
L 1159 0 
L 581 0 
L 581 3500 
L 1159 3500 
L 1159 2956 
Q 1366 3272 1645 3428 
Q 1925 3584 2291 3584 
Q 2894 3584 3203 3211 
Q 3513 2838 3513 2113 
z
" transform="scale(0.015625)"/>
       <path id="DejaVuSans-63" d="M 3122 3366 
L 3122 2828 
Q 2878 2963 2633 3030 
Q 2388 3097 2138 3097 
Q 1578 3097 1268 2742 
Q 959 2388 959 1747 
Q 959 1106 1268 751 
Q 1578 397 2138 397 
Q 2388 397 2633 464 
Q 2878 531 3122 666 
L 3122 134 
Q 2881 22 2623 -34 
Q 2366 -91 2075 -91 
Q 1284 -91 818 406 
Q 353 903 353 1747 
Q 353 2603 823 3093 
Q 1294 3584 2113 3584 
Q 2378 3584 2631 3529 
Q 2884 3475 3122 3366 
z
" transform="scale(0.015625)"/>
       <path id="DejaVuSans-75" d="M 544 1381 
L 544 3500 
L 1119 3500 
L 1119 1403 
Q 1119 906 1312 657 
Q 1506 409 1894 409 
Q 2359 409 2629 706 
Q 2900 1003 2900 1516 
L 2900 3500 
L 3475 3500 
L 3475 0 
L 2900 0 
L 2900 538 
Q 2691 219 2414 64 
Q 2138 -91 1772 -91 
Q 1169 -91 856 284 
Q 544 659 544 1381 
z
M 1991 3584 
L 1991 3584 
z
" transform="scale(0.015625)"/>
      </defs>
      <use xlink:href="#DejaVuSans-4c"/>
      <use xlink:href="#DejaVuSans-69" x="55.712891"/>
      <use xlink:href="#DejaVuSans-73" x="83.496094"/>
      <use xlink:href="#DejaVuSans-74" x="135.595703"/>
      <use xlink:href="#DejaVuSans-65" x="174.804688"/>
      <use xlink:href="#DejaVuSans-6e" x="236.328125"/>
      <use xlink:href="#DejaVuSans-65" x="299.707031"/>
      <use xlink:href="#DejaVuSans-72" x="361.230469"/>
      <use xlink:href="#DejaVuSans-20" x="402.34375"/>
      <use xlink:href="#DejaVuSans-61" x="434.130859"/>
      <use xlink:href="#DejaVuSans-63" x="495.410156"/>
      <use xlink:href="#DejaVuSans-63" x="550.390625"/>
      <use xlink:href="#DejaVuSans-75" x="605.371094"/>
      <use xlink:href="#DejaVuSans-72" x="668.75"/>
      <use xlink:href="#DejaVuSans-61" x="709.863281"/>
      <use xlink:href="#DejaVuSans-63" x="771.142578"/>
      <use xlink:href="#DejaVuSans-79" x="826.123047"/>
     </g>
    </g>
   </g>
   <g id="line2d_16">
    <path d="M 73.533477 239.491032 
L 76.328951 238.001035 
L 79.124425 236.506513 
L 81.919899 235.007671 
L 84.715372 233.504717 
L 87.510846 231.99786 
L 90.30632 230.487313 
L 93.101793 228.97329 
L 95.897267 227.456008 
L 98.692741 225.935685 
L 101.488215 224.41254 
L 104.283688 222.886797 
L 107.079162 221.358677 
L 109.874636 219.828406 
L 112.670109 218.29621 
L 115.465583 216.762316 
L 118.261057 215.226952 
L 121.056531 213.690347 
L 123.852004 212.152731 
L 126.647478 210.614335 
L 129.442952 209.075389 
L 132.238426 207.536124 
L 135.033899 205.996772 
L 137.829373 204.457564 
L 140.624847 202.918731 
L 143.42032 201.380506 
L 146.215794 199.843118 
L 149.011268 198.306798 
L 151.806742 196.771775 
L 154.602215 195.238278 
L 157.397689 193.706536 
L 160.193163 192.176774 
L 162.988636 190.649219 
L 165.78411 189.124096 
L 168.579584 187.601626 
L 171.375058 186.082032 
L 174.170531 184.565533 
L 176.966005 183.052347 
L 179.761479 181.54269 
L 182.556952 180.036776 
L 185.352426 178.534816 
L 188.1479 177.03702 
L 190.943374 175.543594 
L 193.738847 174.054744 
L 196.534321 172.570671 
L 199.329795 171.091573 
L 202.125268 169.617648 
L 204.920742 168.149089 
L 207.716216 166.686086 
L 210.51169 165.228826 
L 213.307163 163.777493 
L 216.102637 162.332269 
L 218.898111 160.89333 
L 221.693585 159.460851 
L 224.489058 158.035001 
L 227.284532 156.615949 
L 230.080006 155.203857 
L 232.875479 153.798885 
L 235.670953 152.401189 
L 238.466427 151.010921 
L 241.261901 149.628229 
L 244.057374 148.253258 
L 246.852848 146.886149 
L 249.648322 145.527037 
L 252.443795 144.176056 
L 255.239269 142.833334 
L 258.034743 141.498995 
L 260.830217 140.17316 
L 263.62569 138.855946 
L 266.421164 137.547464 
L 269.216638 136.247823 
L 272.012111 134.957128 
L 274.807585 133.675477 
L 277.603059 132.402967 
L 280.398533 131.13969 
L 283.194006 129.885734 
L 285.98948 128.641181 
L 288.784954 127.406113 
L 291.580428 126.180604 
L 294.375901 124.964726 
L 297.171375 123.758547 
L 299.966849 122.56213 
L 302.762322 121.375534 
L 305.557796 120.198817 
L 308.35327 119.032029 
L 311.148744 117.875218 
L 313.944217 116.728429 
L 316.739691 115.591702 
L 319.535165 114.465075 
L 322.330638 113.34858 
L 325.126112 112.242247 
L 327.921586 111.146101 
L 330.71706 110.060166 
L 333.512533 108.98446 
L 336.308007 107.918999 
L 339.103481 106.863795 
L 341.898954 105.818857 
L 344.694428 104.784191 
L 347.489902 103.759799 
L 350.285376 102.745681 
" clip-path="url(#p6ea50eab49)" style="fill: none; stroke: #000000; stroke-opacity: 0.85; stroke-width: 2; stroke-linecap: square"/>
   </g>
   <g id="patch_3">
    <path d="M 43.78125 313.478125 
L 43.78125 22.318125 
" style="fill: none; stroke: #000000; stroke-width: 0.8; stroke-linejoin: miter; stroke-linecap: square"/>
   </g>
   <g id="patch_4">
    <path d="M 43.78125 313.478125 
L 435.231664 313.478125 
" style="fill: none; stroke: #000000; stroke-width: 0.8; stroke-linejoin: miter; stroke-linecap: square"/>
   </g>
   <g id="text_18">
    <!-- KOR test talkers -->
    <g transform="translate(184.447082 16.318125) scale(0.12 -0.12)">
     <defs>
      <path id="DejaVuSans-Bold-4b" d="M 588 4666 
L 1791 4666 
L 1791 2963 
L 3525 4666 
L 4922 4666 
L 2675 2456 
L 5153 0 
L 3647 0 
L 1791 1838 
L 1791 0 
L 588 0 
L 588 4666 
z
" transform="scale(0.015625)"/>
      <path id="DejaVuSans-Bold-4f" d="M 2719 3878 
Q 2169 3878 1866 3472 
Q 1563 3066 1563 2328 
Q 1563 1594 1866 1187 
Q 2169 781 2719 781 
Q 3272 781 3575 1187 
Q 3878 1594 3878 2328 
Q 3878 3066 3575 3472 
Q 3272 3878 2719 3878 
z
M 2719 4750 
Q 3844 4750 4481 4106 
Q 5119 3463 5119 2328 
Q 5119 1197 4481 553 
Q 3844 -91 2719 -91 
Q 1597 -91 958 553 
Q 319 1197 319 2328 
Q 319 3463 958 4106 
Q 1597 4750 2719 4750 
z
" transform="scale(0.015625)"/>
      <path id="DejaVuSans-Bold-52" d="M 2297 2597 
Q 2675 2597 2839 2737 
Q 3003 2878 3003 3200 
Q 3003 3519 2839 3656 
Q 2675 3794 2297 3794 
L 1791 3794 
L 1791 2597 
L 2297 2597 
z
M 1791 1766 
L 1791 0 
L 588 0 
L 588 4666 
L 2425 4666 
Q 3347 4666 3776 4356 
Q 4206 4047 4206 3378 
Q 4206 2916 3982 2619 
Q 3759 2322 3309 2181 
Q 3556 2125 3751 1926 
Q 3947 1728 4147 1325 
L 4800 0 
L 3519 0 
L 2950 1159 
Q 2778 1509 2601 1637 
Q 2425 1766 2131 1766 
L 1791 1766 
z
" transform="scale(0.015625)"/>
      <path id="DejaVuSans-Bold-20" transform="scale(0.015625)"/>
      <path id="DejaVuSans-Bold-74" d="M 1759 4494 
L 1759 3500 
L 2913 3500 
L 2913 2700 
L 1759 2700 
L 1759 1216 
Q 1759 972 1856 886 
Q 1953 800 2241 800 
L 2816 800 
L 2816 0 
L 1856 0 
Q 1194 0 917 276 
Q 641 553 641 1216 
L 641 2700 
L 84 2700 
L 84 3500 
L 641 3500 
L 641 4494 
L 1759 4494 
z
" transform="scale(0.015625)"/>
      <path id="DejaVuSans-Bold-65" d="M 4031 1759 
L 4031 1441 
L 1416 1441 
Q 1456 1047 1700 850 
Q 1944 653 2381 653 
Q 2734 653 3104 758 
Q 3475 863 3866 1075 
L 3866 213 
Q 3469 63 3072 -14 
Q 2675 -91 2278 -91 
Q 1328 -91 801 392 
Q 275 875 275 1747 
Q 275 2603 792 3093 
Q 1309 3584 2216 3584 
Q 3041 3584 3536 3087 
Q 4031 2591 4031 1759 
z
M 2881 2131 
Q 2881 2450 2695 2645 
Q 2509 2841 2209 2841 
Q 1884 2841 1681 2658 
Q 1478 2475 1428 2131 
L 2881 2131 
z
" transform="scale(0.015625)"/>
      <path id="DejaVuSans-Bold-73" d="M 3272 3391 
L 3272 2541 
Q 2913 2691 2578 2766 
Q 2244 2841 1947 2841 
Q 1628 2841 1473 2761 
Q 1319 2681 1319 2516 
Q 1319 2381 1436 2309 
Q 1553 2238 1856 2203 
L 2053 2175 
Q 2913 2066 3209 1816 
Q 3506 1566 3506 1031 
Q 3506 472 3093 190 
Q 2681 -91 1863 -91 
Q 1516 -91 1145 -36 
Q 775 19 384 128 
L 384 978 
Q 719 816 1070 734 
Q 1422 653 1784 653 
Q 2113 653 2278 743 
Q 2444 834 2444 1013 
Q 2444 1163 2330 1236 
Q 2216 1309 1875 1350 
L 1678 1375 
Q 931 1469 631 1722 
Q 331 1975 331 2491 
Q 331 3047 712 3315 
Q 1094 3584 1881 3584 
Q 2191 3584 2531 3537 
Q 2872 3491 3272 3391 
z
" transform="scale(0.015625)"/>
      <path id="DejaVuSans-Bold-61" d="M 2106 1575 
Q 1756 1575 1579 1456 
Q 1403 1338 1403 1106 
Q 1403 894 1545 773 
Q 1688 653 1941 653 
Q 2256 653 2472 879 
Q 2688 1106 2688 1447 
L 2688 1575 
L 2106 1575 
z
M 3816 1997 
L 3816 0 
L 2688 0 
L 2688 519 
Q 2463 200 2181 54 
Q 1900 -91 1497 -91 
Q 953 -91 614 226 
Q 275 544 275 1050 
Q 275 1666 698 1953 
Q 1122 2241 2028 2241 
L 2688 2241 
L 2688 2328 
Q 2688 2594 2478 2717 
Q 2269 2841 1825 2841 
Q 1466 2841 1156 2769 
Q 847 2697 581 2553 
L 581 3406 
Q 941 3494 1303 3539 
Q 1666 3584 2028 3584 
Q 2975 3584 3395 3211 
Q 3816 2838 3816 1997 
z
" transform="scale(0.015625)"/>
      <path id="DejaVuSans-Bold-6c" d="M 538 4863 
L 1656 4863 
L 1656 0 
L 538 0 
L 538 4863 
z
" transform="scale(0.015625)"/>
      <path id="DejaVuSans-Bold-6b" d="M 538 4863 
L 1656 4863 
L 1656 2216 
L 2944 3500 
L 4244 3500 
L 2534 1894 
L 4378 0 
L 3022 0 
L 1656 1459 
L 1656 0 
L 538 0 
L 538 4863 
z
" transform="scale(0.015625)"/>
      <path id="DejaVuSans-Bold-72" d="M 3138 2547 
Q 2991 2616 2845 2648 
Q 2700 2681 2553 2681 
Q 2122 2681 1889 2404 
Q 1656 2128 1656 1613 
L 1656 0 
L 538 0 
L 538 3500 
L 1656 3500 
L 1656 2925 
Q 1872 3269 2151 3426 
Q 2431 3584 2822 3584 
Q 2878 3584 2943 3579 
Q 3009 3575 3134 3559 
L 3138 2547 
z
" transform="scale(0.015625)"/>
     </defs>
     <use xlink:href="#DejaVuSans-Bold-4b"/>
     <use xlink:href="#DejaVuSans-Bold-4f" x="72.990234"/>
     <use xlink:href="#DejaVuSans-Bold-52" x="158"/>
     <use xlink:href="#DejaVuSans-Bold-20" x="235.001953"/>
     <use xlink:href="#DejaVuSans-Bold-74" x="269.816406"/>
     <use xlink:href="#DejaVuSans-Bold-65" x="317.619141"/>
     <use xlink:href="#DejaVuSans-Bold-73" x="385.441406"/>
     <use xlink:href="#DejaVuSans-Bold-74" x="444.962891"/>
     <use xlink:href="#DejaVuSans-Bold-20" x="492.765625"/>
     <use xlink:href="#DejaVuSans-Bold-74" x="527.580078"/>
     <use xlink:href="#DejaVuSans-Bold-61" x="575.382812"/>
     <use xlink:href="#DejaVuSans-Bold-6c" x="642.863281"/>
     <use xlink:href="#DejaVuSans-Bold-6b" x="677.140625"/>
     <use xlink:href="#DejaVuSans-Bold-65" x="741.019531"/>
     <use xlink:href="#DejaVuSans-Bold-72" x="808.841797"/>
     <use xlink:href="#DejaVuSans-Bold-73" x="858.158203"/>
    </g>
   </g>
  </g>
  <g id="axes_2">
   <g id="patch_5">
    <path d="M 455.85875 313.478125 
L 847.309164 313.478125 
L 847.309164 22.318125 
L 455.85875 22.318125 
z
" style="fill: #ffffff"/>
   </g>
   <g id="PathCollection_2">
    <g clip-path="url(#pb170dd755f)">
     <use xlink:href="#md41a100d4d" x="536.877905" y="332.166187" style="fill-opacity: 0.4; stroke: #000000; stroke-opacity: 0.4"/>
     <use xlink:href="#md41a100d4d" x="573.33762" y="276.427012" style="fill-opacity: 0.4; stroke: #000000; stroke-opacity: 0.4"/>
     <use xlink:href="#md41a100d4d" x="593.229452" y="332.456174" style="fill-opacity: 0.4; stroke: #000000; stroke-opacity: 0.4"/>
     <use xlink:href="#md41a100d4d" x="602.107523" y="336.07369" style="fill-opacity: 0.4; stroke: #000000; stroke-opacity: 0.4"/>
     <use xlink:href="#md41a100d4d" x="613.097732" y="285.348952" style="fill-opacity: 0.4; stroke: #000000; stroke-opacity: 0.4"/>
     <use xlink:href="#md41a100d4d" x="621.842556" y="283.762782" style="fill-opacity: 0.4; stroke: #000000; stroke-opacity: 0.4"/>
     <use xlink:href="#md41a100d4d" x="630.76249" y="282.541057" style="fill-opacity: 0.4; stroke: #000000; stroke-opacity: 0.4"/>
     <use xlink:href="#md41a100d4d" x="640.651145" y="212.994833" style="fill-opacity: 0.4; stroke: #000000; stroke-opacity: 0.4"/>
     <use xlink:href="#md41a100d4d" x="648.306859" y="225.165054" style="fill-opacity: 0.4; stroke: #000000; stroke-opacity: 0.4"/>
     <use xlink:href="#md41a100d4d" x="654.638706" y="249.083499" style="fill-opacity: 0.4; stroke: #000000; stroke-opacity: 0.4"/>
     <use xlink:href="#md41a100d4d" x="664.892948" y="215.100054" style="fill-opacity: 0.4; stroke: #000000; stroke-opacity: 0.4"/>
     <use xlink:href="#md41a100d4d" x="670.491987" y="194.356803" style="fill-opacity: 0.4; stroke: #000000; stroke-opacity: 0.4"/>
     <use xlink:href="#md41a100d4d" x="677.372708" y="123.342169" style="fill-opacity: 0.4; stroke: #000000; stroke-opacity: 0.4"/>
     <use xlink:href="#md41a100d4d" x="683.663665" y="223.704908" style="fill-opacity: 0.4; stroke: #000000; stroke-opacity: 0.4"/>
     <use xlink:href="#md41a100d4d" x="689.934088" y="161.600112" style="fill-opacity: 0.4; stroke: #000000; stroke-opacity: 0.4"/>
     <use xlink:href="#md41a100d4d" x="696.435524" y="106.352109" style="fill-opacity: 0.4; stroke: #000000; stroke-opacity: 0.4"/>
     <use xlink:href="#md41a100d4d" x="706.091803" y="138.402443" style="fill-opacity: 0.4; stroke: #000000; stroke-opacity: 0.4"/>
     <use xlink:href="#md41a100d4d" x="713.971721" y="104.73814" style="fill-opacity: 0.4; stroke: #000000; stroke-opacity: 0.4"/>
     <use xlink:href="#md41a100d4d" x="724.121341" y="133.706813" style="fill-opacity: 0.4; stroke: #000000; stroke-opacity: 0.4"/>
     <use xlink:href="#md41a100d4d" x="735.085327" y="98.743398" style="fill-opacity: 0.4; stroke: #000000; stroke-opacity: 0.4"/>
    </g>
   </g>
   <g id="matplotlib.axis_3">
    <g id="xtick_7">
     <g id="line2d_17">
      <g>
       <use xlink:href="#m83020e4be6" x="455.85875" y="313.478125" style="stroke: #000000; stroke-width: 0.8"/>
      </g>
     </g>
     <g id="text_19">
      <!-- 0.0 -->
      <g transform="translate(447.907187 328.076563) scale(0.1 -0.1)">
       <use xlink:href="#DejaVuSans-30"/>
       <use xlink:href="#DejaVuSans-2e" x="63.623047"/>
       <use xlink:href="#DejaVuSans-30" x="95.410156"/>
      </g>
     </g>
    </g>
    <g id="xtick_8">
     <g id="line2d_18">
      <g>
       <use xlink:href="#m83020e4be6" x="532.613733" y="313.478125" style="stroke: #000000; stroke-width: 0.8"/>
      </g>
     </g>
     <g id="text_20">
      <!-- 0.2 -->
      <g transform="translate(524.662171 328.076563) scale(0.1 -0.1)">
       <use xlink:href="#DejaVuSans-30"/>
       <use xlink:href="#DejaVuSans-2e" x="63.623047"/>
       <use xlink:href="#DejaVuSans-32" x="95.410156"/>
      </g>
     </g>
    </g>
    <g id="xtick_9">
     <g id="line2d_19">
      <g>
       <use xlink:href="#m83020e4be6" x="609.368716" y="313.478125" style="stroke: #000000; stroke-width: 0.8"/>
      </g>
     </g>
     <g id="text_21">
      <!-- 0.4 -->
      <g transform="translate(601.417154 328.076563) scale(0.1 -0.1)">
       <use xlink:href="#DejaVuSans-30"/>
       <use xlink:href="#DejaVuSans-2e" x="63.623047"/>
       <use xlink:href="#DejaVuSans-34" x="95.410156"/>
      </g>
     </g>
    </g>
    <g id="xtick_10">
     <g id="line2d_20">
      <g>
       <use xlink:href="#m83020e4be6" x="686.1237" y="313.478125" style="stroke: #000000; stroke-width: 0.8"/>
      </g>
     </g>
     <g id="text_22">
      <!-- 0.6 -->
      <g transform="translate(678.172137 328.076563) scale(0.1 -0.1)">
       <use xlink:href="#DejaVuSans-30"/>
       <use xlink:href="#DejaVuSans-2e" x="63.623047"/>
       <use xlink:href="#DejaVuSans-36" x="95.410156"/>
      </g>
     </g>
    </g>
    <g id="xtick_11">
     <g id="line2d_21">
      <g>
       <use xlink:href="#m83020e4be6" x="762.878683" y="313.478125" style="stroke: #000000; stroke-width: 0.8"/>
      </g>
     </g>
     <g id="text_23">
      <!-- 0.8 -->
      <g transform="translate(754.92712 328.076563) scale(0.1 -0.1)">
       <use xlink:href="#DejaVuSans-30"/>
       <use xlink:href="#DejaVuSans-2e" x="63.623047"/>
       <use xlink:href="#DejaVuSans-38" x="95.410156"/>
      </g>
     </g>
    </g>
    <g id="xtick_12">
     <g id="line2d_22">
      <g>
       <use xlink:href="#m83020e4be6" x="839.633666" y="313.478125" style="stroke: #000000; stroke-width: 0.8"/>
      </g>
     </g>
     <g id="text_24">
      <!-- 1.0 -->
      <g transform="translate(831.682104 328.076563) scale(0.1 -0.1)">
       <use xlink:href="#DejaVuSans-31"/>
       <use xlink:href="#DejaVuSans-2e" x="63.623047"/>
       <use xlink:href="#DejaVuSans-30" x="95.410156"/>
      </g>
     </g>
    </g>
    <g id="text_25">
     <!-- Model similarity (Tr-24) -->
     <g transform="translate(594.201145 341.754687) scale(0.1 -0.1)">
      <use xlink:href="#DejaVuSans-4d"/>
      <use xlink:href="#DejaVuSans-6f" x="86.279297"/>
      <use xlink:href="#DejaVuSans-64" x="147.460938"/>
      <use xlink:href="#DejaVuSans-65" x="210.9375"/>
      <use xlink:href="#DejaVuSans-6c" x="272.460938"/>
      <use xlink:href="#DejaVuSans-20" x="300.244141"/>
      <use xlink:href="#DejaVuSans-73" x="332.03125"/>
      <use xlink:href="#DejaVuSans-69" x="384.130859"/>
      <use xlink:href="#DejaVuSans-6d" x="411.914062"/>
      <use xlink:href="#DejaVuSans-69" x="509.326172"/>
      <use xlink:href="#DejaVuSans-6c" x="537.109375"/>
      <use xlink:href="#DejaVuSans-61" x="564.892578"/>
      <use xlink:href="#DejaVuSans-72" x="626.171875"/>
      <use xlink:href="#DejaVuSans-69" x="667.285156"/>
      <use xlink:href="#DejaVuSans-74" x="695.068359"/>
      <use xlink:href="#DejaVuSans-79" x="734.277344"/>
      <use xlink:href="#DejaVuSans-20" x="793.457031"/>
      <use xlink:href="#DejaVuSans-28" x="825.244141"/>
      <use xlink:href="#DejaVuSans-54" x="864.257812"/>
      <use xlink:href="#DejaVuSans-72" x="910.591797"/>
      <use xlink:href="#DejaVuSans-2d" x="945.330078"/>
      <use xlink:href="#DejaVuSans-32" x="981.414062"/>
      <use xlink:href="#DejaVuSans-34" x="1045.037109"/>
      <use xlink:href="#DejaVuSans-29" x="1108.660156"/>
     </g>
    </g>
   </g>
   <g id="matplotlib.axis_4">
    <g id="ytick_10">
     <g id="line2d_23">
      <g>
       <use xlink:href="#m6e05eb12fb" x="455.85875" y="313.478125" style="stroke: #000000; stroke-width: 0.8"/>
      </g>
     </g>
    </g>
    <g id="ytick_11">
     <g id="line2d_24">
      <g>
       <use xlink:href="#m6e05eb12fb" x="455.85875" y="277.970808" style="stroke: #000000; stroke-width: 0.8"/>
      </g>
     </g>
    </g>
    <g id="ytick_12">
     <g id="line2d_25">
      <g>
       <use xlink:href="#m6e05eb12fb" x="455.85875" y="242.463491" style="stroke: #000000; stroke-width: 0.8"/>
      </g>
     </g>
    </g>
    <g id="ytick_13">
     <g id="line2d_26">
      <g>
       <use xlink:href="#m6e05eb12fb" x="455.85875" y="206.956174" style="stroke: #000000; stroke-width: 0.8"/>
      </g>
     </g>
    </g>
    <g id="ytick_14">
     <g id="line2d_27">
      <g>
       <use xlink:href="#m6e05eb12fb" x="455.85875" y="171.448857" style="stroke: #000000; stroke-width: 0.8"/>
      </g>
     </g>
    </g>
    <g id="ytick_15">
     <g id="line2d_28">
      <g>
       <use xlink:href="#m6e05eb12fb" x="455.85875" y="135.94154" style="stroke: #000000; stroke-width: 0.8"/>
      </g>
     </g>
    </g>
    <g id="ytick_16">
     <g id="line2d_29">
      <g>
       <use xlink:href="#m6e05eb12fb" x="455.85875" y="100.434223" style="stroke: #000000; stroke-width: 0.8"/>
      </g>
     </g>
    </g>
    <g id="ytick_17">
     <g id="line2d_30">
      <g>
       <use xlink:href="#m6e05eb12fb" x="455.85875" y="64.926905" style="stroke: #000000; stroke-width: 0.8"/>
      </g>
     </g>
    </g>
    <g id="ytick_18">
     <g id="line2d_31">
      <g>
       <use xlink:href="#m6e05eb12fb" x="455.85875" y="29.419588" style="stroke: #000000; stroke-width: 0.8"/>
      </g>
     </g>
    </g>
   </g>
   <g id="line2d_32">
    <path d="M 525.362055 352.034375 
L 526.279974 351.570883 
L 529.221885 350.02268 
L 532.163796 348.409826 
L 535.105708 346.730395 
L 538.047619 344.982479 
L 540.989531 343.164195 
L 543.931442 341.273693 
L 546.873353 339.309166 
L 549.815265 337.268865 
L 552.757176 335.151102 
L 555.699087 332.954266 
L 558.640999 330.676838 
L 561.58291 328.317398 
L 564.524822 325.874642 
L 567.466733 323.347393 
L 570.408644 320.734619 
L 573.350556 318.035443 
L 576.292467 315.249159 
L 579.234378 312.375247 
L 582.17629 309.413386 
L 585.118201 306.363471 
L 588.060113 303.22562 
L 591.002024 300.000194 
L 593.943935 296.687805 
L 596.885847 293.289331 
L 599.827758 289.805919 
L 602.769669 286.239003 
L 605.711581 282.590304 
L 608.653492 278.861838 
L 611.595404 275.055923 
L 614.537315 271.175175 
L 617.479226 267.22251 
L 620.421138 263.201145 
L 623.363049 259.114586 
L 626.304961 254.966627 
L 629.246872 250.761335 
L 632.188783 246.503041 
L 635.130695 242.196324 
L 638.072606 237.845994 
L 641.014517 233.457072 
L 643.956429 229.034768 
L 646.89834 224.58446 
L 649.840252 220.111664 
L 652.782163 215.622012 
L 655.724074 211.121223 
L 658.665986 206.61507 
L 661.607897 202.109357 
L 664.549808 197.609884 
L 667.49172 193.122418 
L 670.433631 188.652667 
L 673.375543 184.206246 
L 676.317454 179.788654 
L 679.259365 175.405243 
L 682.201277 171.061197 
L 685.143188 166.761507 
L 688.085099 162.510948 
L 691.027011 158.314062 
L 693.968922 154.175142 
L 696.910834 150.098215 
L 699.852745 146.087031 
L 702.794656 142.145053 
L 705.736568 138.275452 
L 708.678479 134.4811 
L 711.62039 130.764567 
L 714.562302 127.128125 
L 717.504213 123.573746 
L 720.446125 120.103106 
L 723.388036 116.717595 
L 726.329947 113.418321 
L 729.271859 110.206118 
L 732.21377 107.08156 
L 735.155681 104.044972 
L 738.097593 101.096436 
L 741.039504 98.235814 
L 743.981416 95.462753 
L 746.923327 92.776705 
L 749.865238 90.176938 
L 752.80715 87.662548 
L 755.749061 85.232482 
L 758.690972 82.885543 
L 761.632884 80.620408 
L 764.574795 78.435642 
L 767.516707 76.329709 
L 770.458618 74.300988 
" clip-path="url(#pb170dd755f)" style="fill: none; stroke: #000000; stroke-opacity: 0.85; stroke-width: 2; stroke-linecap: square"/>
   </g>
   <g id="patch_6">
    <path d="M 455.85875 313.478125 
L 455.85875 22.318125 
" style="fill: none; stroke: #000000; stroke-width: 0.8; stroke-linejoin: miter; stroke-linecap: square"/>
   </g>
   <g id="patch_7">
    <path d="M 455.85875 313.478125 
L 847.309164 313.478125 
" style="fill: none; stroke: #000000; stroke-width: 0.8; stroke-linejoin: miter; stroke-linecap: square"/>
   </g>
   <g id="text_26">
    <!-- SPA test talkers -->
    <g transform="translate(597.809895 16.318125) scale(0.12 -0.12)">
     <defs>
      <path id="DejaVuSans-Bold-53" d="M 3834 4519 
L 3834 3531 
Q 3450 3703 3084 3790 
Q 2719 3878 2394 3878 
Q 1963 3878 1756 3759 
Q 1550 3641 1550 3391 
Q 1550 3203 1689 3098 
Q 1828 2994 2194 2919 
L 2706 2816 
Q 3484 2659 3812 2340 
Q 4141 2022 4141 1434 
Q 4141 663 3683 286 
Q 3225 -91 2284 -91 
Q 1841 -91 1394 -6 
Q 947 78 500 244 
L 500 1259 
Q 947 1022 1364 901 
Q 1781 781 2169 781 
Q 2563 781 2772 912 
Q 2981 1044 2981 1288 
Q 2981 1506 2839 1625 
Q 2697 1744 2272 1838 
L 1806 1941 
Q 1106 2091 782 2419 
Q 459 2747 459 3303 
Q 459 4000 909 4375 
Q 1359 4750 2203 4750 
Q 2588 4750 2994 4692 
Q 3400 4634 3834 4519 
z
" transform="scale(0.015625)"/>
      <path id="DejaVuSans-Bold-50" d="M 588 4666 
L 2584 4666 
Q 3475 4666 3951 4270 
Q 4428 3875 4428 3144 
Q 4428 2409 3951 2014 
Q 3475 1619 2584 1619 
L 1791 1619 
L 1791 0 
L 588 0 
L 588 4666 
z
M 1791 3794 
L 1791 2491 
L 2456 2491 
Q 2806 2491 2997 2661 
Q 3188 2831 3188 3144 
Q 3188 3456 2997 3625 
Q 2806 3794 2456 3794 
L 1791 3794 
z
" transform="scale(0.015625)"/>
      <path id="DejaVuSans-Bold-41" d="M 3419 850 
L 1538 850 
L 1241 0 
L 31 0 
L 1759 4666 
L 3194 4666 
L 4922 0 
L 3713 0 
L 3419 850 
z
M 1838 1716 
L 3116 1716 
L 2478 3572 
L 1838 1716 
z
" transform="scale(0.015625)"/>
     </defs>
     <use xlink:href="#DejaVuSans-Bold-53"/>
     <use xlink:href="#DejaVuSans-Bold-50" x="72.021484"/>
     <use xlink:href="#DejaVuSans-Bold-41" x="136.1875"/>
     <use xlink:href="#DejaVuSans-Bold-20" x="213.580078"/>
     <use xlink:href="#DejaVuSans-Bold-74" x="248.394531"/>
     <use xlink:href="#DejaVuSans-Bold-65" x="296.197266"/>
     <use xlink:href="#DejaVuSans-Bold-73" x="364.019531"/>
     <use xlink:href="#DejaVuSans-Bold-74" x="423.541016"/>
     <use xlink:href="#DejaVuSans-Bold-20" x="471.34375"/>
     <use xlink:href="#DejaVuSans-Bold-74" x="506.158203"/>
     <use xlink:href="#DejaVuSans-Bold-61" x="553.960938"/>
     <use xlink:href="#DejaVuSans-Bold-6c" x="621.441406"/>
     <use xlink:href="#DejaVuSans-Bold-6b" x="655.71875"/>
     <use xlink:href="#DejaVuSans-Bold-65" x="719.597656"/>
     <use xlink:href="#DejaVuSans-Bold-72" x="787.419922"/>
     <use xlink:href="#DejaVuSans-Bold-73" x="836.736328"/>
    </g>
   </g>
  </g>
 </g>
 <defs>
  <clipPath id="p6ea50eab49">
   <rect x="43.78125" y="22.318125" width="391.450414" height="291.16"/>
  </clipPath>
  <clipPath id="pb170dd755f">
   <rect x="455.85875" y="22.318125" width="391.450414" height="291.16"/>
  </clipPath>
 </defs>
</svg>
